# xmcd
#
# Track frame offsets: 
#        150
#        20917
#        36387
#        61902
#        92090
#        111575
#        131817
#        154530
#        172222
#        188997
#        207150
#        228685
#        255867
#        286190
#
# Disc length: 4090 seconds
#
# Revision: 2
# Processed by: cddbd v1.5.2PL0 Copyright (c) Steve Scherf et al.
# Submitted via: ExactAudioCopyFreeDBPlugin 1.0
#
DISCID=ce0ff80e
DTITLE=John Lee Hooker - The Best of Friends (Bonus Track Edition)
DYEAR=1998
DGENRE=Blues
TTITLE0=Boogie Chillen'
TTITLE1=This Is Hip
TTITLE2=The Healer
TTITLE3=I Cover the Waterfront
TTITLE4=Boom Boom
TTITLE5=I'm in the Mood
TTITLE6=Burning Hell
TTITLE7=Tupelo
TTITLE8=Baby Lee
TTITLE9=Dimples
TTITLE10=Chill Out (Things Gonna Change)
TTITLE11=Big Legs, Tight Skirt
TTITLE12=Don't Look Back
TTITLE13=Up and Down
EXTD=
EXTT0=
EXTT1=
EXTT2=
EXTT3=
EXTT4=
EXTT5=
EXTT6=
EXTT7=
EXTT8=
EXTT9=
EXTT10=
EXTT11=
EXTT12=
EXTT13=
PLAYORDER=
